<?xml version="1.0" encoding="UTF-8"?>
<svg width="18px" height="19px" viewBox="0 0 18 19" version="1.1" xmlns="http://www.w3.org/2000/svg" xmlns:xlink="http://www.w3.org/1999/xlink">
    <!-- Generator: Sketch 50.2 (55047) - http://www.bohemiancoding.com/sketch -->
    <title>Instagram@3x</title>
    <desc>Created with Sketch.</desc>
    <defs></defs>
    <g id="Symbols" stroke="none" stroke-width="1" fill="none" fill-rule="evenodd">
        <g id="header" transform="translate(-291.000000, -14.000000)">
            <g id="Instagram" transform="translate(291.000000, 14.125000)">
                <path d="M9.00084376,0 C6.5565683,0 6.2498151,0.0106876113 5.2898051,0.0543755664 C4.33167012,0.0982510234 3.67766331,0.249940104 3.10540735,0.472504922 C2.51346368,0.702382316 2.01133345,1.00988552 1.51107824,1.51032823 C1.01044803,2.01058344 0.702944822,2.51271367 0.47231742,3.10446984 C0.249190096,3.6769133 0.0973135137,4.33110762 0.0541880645,5.28886759 C0.0112501172,6.24887759 0,6.55581829 0,9.00009375 C0,11.4443692 0.0108751133,11.7501849 0.0543755664,12.7101949 C0.0984385254,13.6683299 0.250127605,14.3223367 0.472504922,14.8945927 C0.702569818,15.4865363 1.01007302,15.9886665 1.51051573,16.4889218 C2.01058344,16.989552 2.51271367,17.2978052 3.10428234,17.5276826 C3.6769133,17.7502474 4.33110762,17.9019365 5.28905509,17.9458119 C6.24906509,17.9894999 6.55563079,18.0001875 8.99971875,18.0001875 C11.4441817,18.0001875 11.7499974,17.9894999 12.7100074,17.9458119 C13.6681424,17.9019365 14.3228992,17.7502474 14.8955302,17.5276826 C15.4872863,17.2978052 15.9886665,16.989552 16.4887343,16.4889218 C16.9893645,15.9886665 17.2968677,15.4865363 17.5274951,14.8947802 C17.7487474,14.3223367 17.900624,13.6681424 17.9456244,12.7103824 C17.9887499,11.7503724 18,11.4443692 18,9.00009375 C18,6.55581829 17.9887499,6.24906509 17.9456244,5.28905509 C17.900624,4.33092011 17.7487474,3.6769133 17.5274951,3.10465734 C17.2968677,2.51271367 16.9893645,2.01058344 16.4887343,1.51032823 C15.988104,1.00969802 15.4874738,0.702194815 14.8949677,0.472504922 C14.3212117,0.249940104 13.6668299,0.0982510234 12.7086949,0.0543755664 C11.7486849,0.0106876113 11.4430567,2.66456301e-15 8.99803123,2.66456301e-15 L9.00084376,0 Z" id="Combined-Shape" fill="#DCDCDC"></path>
                <path d="M8.19346035,1.62189189 C8.43308784,1.62151689 8.70046563,1.62189189 9.00084376,1.62189189 C11.4038688,1.62189189 11.6886843,1.63051698 12.6376316,1.67364243 C13.5151408,1.71376785 13.9913957,1.86039438 14.308649,1.98358316 C14.7286534,2.14670986 15.028094,2.34171189 15.3429098,2.65671517 C15.6579131,2.97171846 15.8529151,3.27172158 16.0164168,3.69172596 C16.1396056,4.00860426 16.2864197,4.48485922 16.3263576,5.36236836 C16.369483,6.31112824 16.3788581,6.59613121 16.3788581,8.99803123 C16.3788581,11.3999312 16.369483,11.6849342 16.3263576,12.6336941 C16.2862321,13.5112032 16.1396056,13.9874582 16.0164168,14.3043365 C15.8532901,14.7243409 15.6579131,15.0234065 15.3429098,15.3382223 C15.0279065,15.6532256 14.7288409,15.8482276 14.308649,16.0113543 C13.9917707,16.1351056 13.5151408,16.2813571 12.6376316,16.3214825 C11.6888718,16.364608 11.4038688,16.3739831 9.00084376,16.3739831 C6.59763123,16.3739831 6.31281576,16.364608 5.36405588,16.3214825 C4.48654673,16.2809821 4.01029177,16.1343556 3.69285097,16.0111668 C3.27284659,15.8480401 2.97284347,15.6530381 2.65784019,15.3380348 C2.3428369,15.0230315 2.14783487,14.7237784 1.98433317,14.3035865 C1.86114439,13.9867082 1.71433036,13.5104532 1.67439244,12.6329441 C1.63126699,11.6841842 1.6226419,11.3991812 1.6226419,8.99578121 C1.6226419,6.59238117 1.63126699,6.30887822 1.67439244,5.36011833 C1.71451786,4.48260919 1.86114439,4.00635423 1.98433317,3.68910093 C2.14745987,3.26909655 2.3428369,2.96909343 2.65784019,2.65409015 C2.97284347,2.33908687 3.27284659,2.14408483 3.69285097,1.98058313 C4.01010427,1.85683184 4.48654673,1.71058032 5.36405588,1.6702674 C6.19431452,1.63276701 6.51606788,1.62151689 8.19346035,1.61964187 L8.19346035,1.62189189 Z M13.8050188,3.11628246 C13.2087626,3.11628246 12.7250076,3.59947499 12.7250076,4.19591871 C12.7250076,4.79217492 13.2087626,5.27592996 13.8050188,5.27592996 C14.401275,5.27592996 14.8850301,4.79217492 14.8850301,4.19591871 C14.8850301,3.5996625 14.401275,3.11590746 13.8050188,3.11590746 L13.8050188,3.11628246 Z M9.00084376,4.37817061 C6.44837967,4.37817061 4.37892061,6.44762966 4.37892061,9.00009375 C4.37892061,11.5525578 6.44837967,13.6210794 9.00084376,13.6210794 C11.5533078,13.6210794 13.6220169,11.5525578 13.6220169,9.00009375 C13.6220169,6.44762966 11.5531203,4.37817061 9.00065626,4.37817061 L9.00084376,4.37817061 Z" id="Combined-Shape" fill="#212436"></path>
                <path d="M9.00084376,6.0000625 C10.657611,6.0000625 12.000875,7.34313899 12.000875,9.00009375 C12.000875,10.656861 10.657611,12.000125 9.00084376,12.000125 C7.343889,12.000125 6.00081251,10.656861 6.00081251,9.00009375 C6.00081251,7.34313899 7.343889,6.0000625 9.00084376,6.0000625 L9.00084376,6.0000625 Z" id="Shape" fill="#212436"></path>
            </g>
        </g>
    </g>
</svg>