<svg xmlns="http://www.w3.org/2000/svg" viewBox="35.94 157.38 550.46 260.24">
  <svg xmlns="http://www.w3.org/2000/svg" xmlns:xlink="http://www.w3.org/1999/xlink" version="1.1" id="Layer_1" x="105" y="227" viewBox="234.3000030517578 657.7000122070312 1531.39990234375 684.5999145507812" xml:space="preserve" height="120" width="268" preserveAspectRatio="xMinYMin" enable-background="new 0 0 2000 2000" fill="#ffffff" style="overflow:visible">
    <path id="XMLID_131_" class="st0" d="M607,1340.9h-86.6V713.2h656.9v89H607V1340.9z M535.1,1326.3h57.4V787.6h570.3v-59.9H535.1    V1326.3z" style="fill:#ffffff;fill-opacity:1"/>
    <path id="XMLID_128_" class="st0" d="M1133.6,1340.9H777.4V657.7h356.2V1340.9z M792,1326.3h327v-654H792V1326.3z" style="fill:#ffffff;fill-opacity:1"/>
    <path id="XMLID_125_" class="st0" d="M1765.7,971.5H881V869.3h884.6V971.5z M895.6,956.9h855.4v-73H895.6V956.9z" style="fill:#ffffff;fill-opacity:1"/>
    <path id="XMLID_122_" class="st0" d="M1072.3,1340.9H879.6v-335.8h192.7V1340.9z M894.2,1326.3h163.5v-306.6H894.2V1326.3z" style="fill:#ffffff;fill-opacity:1"/>
    <rect id="XMLID_121_" x="625.1" y="797.8" class="st0" width="5.8" height="532.3" style="fill:#ffffff;fill-opacity:1"/>
    <rect id="XMLID_120_" x="650.4" y="797.8" class="st0" width="5.8" height="532.3" style="fill:#ffffff;fill-opacity:1"/>
    <rect id="XMLID_119_" x="674.7" y="797.8" class="st0" width="5.8" height="532.3" style="fill:#ffffff;fill-opacity:1"/>
    <rect id="XMLID_118_" x="699" y="797.8" class="st0" width="5.8" height="532.3" style="fill:#ffffff;fill-opacity:1"/>
    <rect id="XMLID_117_" x="726.3" y="797.8" class="st0" width="5.8" height="532.3" style="fill:#ffffff;fill-opacity:1"/>
    <rect id="XMLID_116_" x="752.6" y="797.8" class="st0" width="5.8" height="532.3" style="fill:#ffffff;fill-opacity:1"/>
    <rect id="XMLID_115_" x="600.7" y="920.4" class="st0" width="182" height="11.7" style="fill:#ffffff;fill-opacity:1"/>
    <rect id="XMLID_114_" x="595.9" y="1192.9" class="st0" width="189.8" height="11.7" style="fill:#ffffff;fill-opacity:1"/>
    <rect id="XMLID_113_" x="234.3" y="1327.7" class="st0" width="1529.9" height="14.6" style="fill:#ffffff;fill-opacity:1"/>
    <rect id="XMLID_112_" x="395.9" y="764.7" class="st0" width="8.8" height="568.3" style="fill:#ffffff;fill-opacity:1"/>
    <polygon id="XMLID_111_" class="st0" points="404.7,814.1 398.7,807.8 430.3,779.1 436.3,785.5   " style="fill:#ffffff;fill-opacity:1"/>
    <rect id="XMLID_110_" x="361.5" y="796.5" transform="matrix(0.7888 0.6147 -0.6147 0.7888 573.3526 -66.7823)" class="st0" width="44.7" height="8.8" style="fill:#ffffff;fill-opacity:1"/>
    <rect id="XMLID_109_" x="429.3" y="817" transform="matrix(0.6621 0.7494 -0.7494 0.6621 792.2697 -33.8944)" class="st0" width="8.8" height="89.3" style="fill:#ffffff;fill-opacity:1"/>
    <rect id="XMLID_108_" x="433.1" y="859.9" transform="matrix(0.6729 0.7397 -0.7397 0.6729 815.3752 -26.3582)" class="st0" width="8.8" height="98" style="fill:#ffffff;fill-opacity:1"/>
    <rect id="XMLID_107_" x="433.8" y="907.5" transform="matrix(0.6653 0.7466 -0.7466 0.6653 861.2521 -6.8135)" class="st0" width="8.8" height="99.1" style="fill:#ffffff;fill-opacity:1"/>
    <rect id="XMLID_106_" x="433.8" y="953.2" transform="matrix(0.6555 0.7552 -0.7552 0.6555 907.7518 14.2783)" class="st0" width="8.8" height="98" style="fill:#ffffff;fill-opacity:1"/>
    <rect id="XMLID_105_" x="433.6" y="998.5" transform="matrix(0.637 0.7708 -0.7708 0.637 965.9002 42.3486)" class="st0" width="8.8" height="96.6" style="fill:#ffffff;fill-opacity:1"/>
    <rect id="XMLID_104_" x="436.8" y="1040.3" transform="matrix(0.6354 0.7722 -0.7722 0.6354 1003.9947 57.4627)" class="st0" width="8.8" height="103.4" style="fill:#ffffff;fill-opacity:1"/>
    <rect id="XMLID_103_" x="435.3" y="1085.9" transform="matrix(0.6075 0.7943 -0.7943 0.6075 1076.5059 97.4161)" class="st0" width="8.8" height="104.1" style="fill:#ffffff;fill-opacity:1"/>
    <rect id="XMLID_102_" x="308.8" y="1135.5" transform="matrix(0.8359 0.5489 -0.5489 0.8359 684.4041 -9.1907)" class="st0" width="97.5" height="8.8" style="fill:#ffffff;fill-opacity:1"/>
    <rect id="XMLID_101_" x="434.8" y="1133" transform="matrix(0.6119 0.7909 -0.7909 0.6119 1107.4299 112.3822)" class="st0" width="8.8" height="103.4" style="fill:#ffffff;fill-opacity:1"/>
    <rect id="XMLID_100_" x="308.8" y="1182.2" transform="matrix(0.8359 0.5489 -0.5489 0.8359 710.0461 -1.5238)" class="st0" width="97.5" height="8.8" style="fill:#ffffff;fill-opacity:1"/>
    <rect id="XMLID_99_" x="303.6" y="1090.4" transform="matrix(0.8324 0.5542 -0.5542 0.8324 666.3735 -13.8662)" class="st0" width="104.9" height="8.8" style="fill:#ffffff;fill-opacity:1"/>
    <rect id="XMLID_98_" x="304.8" y="1045" transform="matrix(0.8487 0.5289 -0.5289 0.8487 608.8137 -29.1681)" class="st0" width="101.2" height="8.8" style="fill:#ffffff;fill-opacity:1"/>
    <rect id="XMLID_97_" x="310.3" y="1004.1" transform="matrix(0.8489 0.5286 -0.5286 0.8489 587.2548 -36.9132)" class="st0" width="95.7" height="8.8" style="fill:#ffffff;fill-opacity:1"/>
    <rect id="XMLID_96_" x="302.8" y="953.8" transform="matrix(0.8156 0.5787 -0.5787 0.8156 620.1445 -29.4249)" class="st0" width="106.8" height="8.8" style="fill:#ffffff;fill-opacity:1"/>
    <rect id="XMLID_95_" x="311.6" y="909.2" transform="matrix(0.8197 0.5728 -0.5728 0.8197 588.3849 -41.9678)" class="st0" width="98.5" height="8.8" style="fill:#ffffff;fill-opacity:1"/>
    <rect id="XMLID_94_" x="319.7" y="858.9" transform="matrix(0.8066 0.5911 -0.5911 0.8066 580.66 -48.0635)" class="st0" width="88.1" height="8.8" style="fill:#ffffff;fill-opacity:1"/>
    <polygon id="XMLID_93_" class="st0" points="400.4,854.9 344.2,814.5 349.3,807.4 400.1,843.9 449.1,804.2 454.6,811   " style="fill:#ffffff;fill-opacity:1"/>
  </svg>
  <svg xmlns="http://www.w3.org/2000/svg" y="317" viewBox="0.1899999976158142 4.25 206.72000122070312 13.069999694824219" x="289" height="13" width="206" style="overflow:visible">
    <g fill="#ffffff" fill-opacity="1" style="">
      <path d="M5.27 11.42L5.25 12.17L5.32 15.30L3.57 15.30L3.66 12.17L3.64 11.51L0.19 4.39L2.06 4.39L2.28 5.07L4.44 9.64L4.57 9.64L6.97 5.10L7.24 4.39L9.06 4.39L5.27 11.42ZM15.14 4.25Q17.41 4.25 18.63 5.64Q19.85 7.04 19.85 9.62L19.85 9.62Q19.85 12.41 18.54 13.93Q17.24 15.45 14.82 15.45L14.82 15.45Q12.58 15.45 11.36 14.02Q10.15 12.58 10.15 9.95L10.15 9.95Q10.15 7.21 11.45 5.73Q12.75 4.25 15.14 4.25L15.14 4.25ZM15.01 5.68Q13.46 5.68 12.70 6.67Q11.95 7.67 11.95 9.74L11.95 9.74Q11.95 12.00 12.69 13.05Q13.43 14.09 14.97 14.09L14.97 14.09Q16.54 14.09 17.29 13.09Q18.03 12.09 18.03 9.96L18.03 9.96Q18.03 7.74 17.29 6.71Q16.55 5.68 15.01 5.68L15.01 5.68ZM31.00 4.39L30.95 9.93L30.93 11.22Q30.97 13.23 29.85 14.33Q28.72 15.44 26.67 15.44L26.67 15.44Q24.68 15.44 23.62 14.37Q22.57 13.31 22.60 11.36L22.60 11.36L22.64 9.84L22.60 4.39L24.34 4.39L24.27 11.12Q24.25 12.55 24.88 13.24Q25.51 13.94 26.79 13.94L26.79 13.94Q29.34 13.94 29.32 11.29L29.32 11.29L29.23 4.39L31.00 4.39ZM39.62 10.93Q40.77 12.78 42.36 14.89L42.36 14.89L42.34 15.10Q41.52 15.37 40.66 15.45L40.66 15.45L40.45 15.32Q39.04 13.01 38.17 11.41L38.17 11.41L36.32 11.41L36.32 11.87L36.41 15.30L34.62 15.30L34.74 12.02L34.62 4.39L38.33 4.37Q39.98 4.37 40.88 5.19Q41.78 6.02 41.78 7.55L41.78 7.55Q41.78 8.64 41.21 9.51Q40.64 10.39 39.62 10.93L39.62 10.93ZM36.41 5.80L36.35 9.98L38.22 10.03Q39.94 9.50 39.94 7.68L39.94 7.68Q39.94 6.73 39.42 6.26Q38.90 5.78 37.85 5.75L37.85 5.75L36.41 5.80ZM57.24 4.39L53.38 15.30L51.31 15.30L47.77 4.39L49.57 4.39L49.83 5.63L52.33 13.60L52.45 13.60L55.22 5.71L55.49 4.39L57.24 4.39ZM61.56 4.39L61.45 11.87L61.54 15.30L59.75 15.30L59.87 12.02L59.75 4.39L61.56 4.39ZM68.69 4.27Q69.98 4.27 71.28 4.81L71.28 4.81L70.99 6.41L70.72 6.51Q70.17 6.12 69.59 5.90Q69.02 5.68 68.49 5.68L68.49 5.68Q67.66 5.68 67.16 6.14Q66.67 6.60 66.67 7.21L66.67 7.21Q66.67 7.80 67.16 8.19Q67.66 8.57 68.71 9.06L68.71 9.06Q69.63 9.50 70.20 9.86Q70.77 10.22 71.17 10.80Q71.58 11.39 71.58 12.21L71.58 12.21Q71.58 13.09 71.10 13.83Q70.61 14.57 69.74 15.00Q68.86 15.44 67.74 15.44L67.74 15.44Q66.99 15.44 66.19 15.25Q65.39 15.06 64.68 14.71L64.68 14.71L64.90 12.97L65.12 12.87Q65.75 13.46 66.51 13.76Q67.27 14.06 67.91 14.06L67.91 14.06Q68.80 14.06 69.32 13.59Q69.85 13.12 69.85 12.48L69.85 12.48Q69.85 11.83 69.34 11.43Q68.83 11.03 67.77 10.54L67.77 10.54Q66.87 10.12 66.31 9.77Q65.75 9.42 65.35 8.84Q64.95 8.26 64.95 7.45L64.95 7.45Q64.95 6.56 65.43 5.83Q65.91 5.10 66.75 4.68Q67.60 4.27 68.69 4.27L68.69 4.27ZM76.51 4.39L76.41 11.87L76.49 15.30L74.71 15.30L74.83 12.02L74.71 4.39L76.51 4.39ZM84.33 4.25Q86.59 4.25 87.81 5.64Q89.04 7.04 89.04 9.62L89.04 9.62Q89.04 12.41 87.73 13.93Q86.42 15.45 84.00 15.45L84.00 15.45Q81.76 15.45 80.54 14.02Q79.33 12.58 79.33 9.95L79.33 9.95Q79.33 7.21 80.63 5.73Q81.93 4.25 84.33 4.25L84.33 4.25ZM84.19 5.68Q82.64 5.68 81.89 6.67Q81.13 7.67 81.13 9.74L81.13 9.74Q81.13 12.00 81.87 13.05Q82.61 14.09 84.16 14.09L84.16 14.09Q85.72 14.09 86.47 13.09Q87.22 12.09 87.22 9.96L87.22 9.96Q87.22 7.74 86.48 6.71Q85.74 5.68 84.19 5.68L84.19 5.68ZM100.81 4.35L100.71 12.04L100.76 15.30L98.88 15.30L93.74 7.12L93.62 7.12L93.61 11.64L93.66 15.30L92.06 15.30L92.14 12.07L92.08 4.39L93.93 4.39L99.08 12.56L99.22 12.56L99.18 4.47L100.81 4.35ZM105.04 13.50Q105.77 14.03 105.77 14.77L105.77 14.77Q105.77 16.03 103.97 17.32L103.97 17.32L103.41 16.81L103.39 16.68Q104.33 15.91 104.33 15.11L104.33 15.11Q104.33 14.59 103.80 14.21L103.80 14.21L103.80 14.06Q104.43 13.65 105.04 13.50L105.04 13.50ZM116.95 4.25Q119.22 4.25 120.44 5.64Q121.66 7.04 121.66 9.62L121.66 9.62Q121.66 12.41 120.35 13.93Q119.05 15.45 116.63 15.45L116.63 15.45Q114.39 15.45 113.17 14.02Q111.96 12.58 111.96 9.95L111.96 9.95Q111.96 7.21 113.26 5.73Q114.56 4.25 116.95 4.25L116.95 4.25ZM116.82 5.68Q115.27 5.68 114.52 6.67Q113.76 7.67 113.76 9.74L113.76 9.74Q113.76 12.00 114.50 13.05Q115.24 14.09 116.78 14.09L116.78 14.09Q118.35 14.09 119.10 13.09Q119.84 12.09 119.84 9.96L119.84 9.96Q119.84 7.74 119.11 6.71Q118.37 5.68 116.82 5.68L116.82 5.68ZM132.81 4.39L132.76 9.93L132.74 11.22Q132.78 13.23 131.66 14.33Q130.53 15.44 128.48 15.44L128.48 15.44Q126.49 15.44 125.43 14.37Q124.38 13.31 124.41 11.36L124.41 11.36L124.45 9.84L124.41 4.39L126.15 4.39L126.08 11.12Q126.06 12.55 126.69 13.24Q127.32 13.94 128.60 13.94L128.60 13.94Q131.15 13.94 131.13 11.29L131.13 11.29L131.04 4.39L132.81 4.39ZM141.43 10.93Q142.58 12.78 144.17 14.89L144.17 14.89L144.15 15.10Q143.33 15.37 142.47 15.45L142.47 15.45L142.26 15.32Q140.85 13.01 139.98 11.41L139.98 11.41L138.13 11.41L138.13 11.87L138.22 15.30L136.43 15.30L136.55 12.02L136.43 4.39L140.14 4.37Q141.79 4.37 142.69 5.19Q143.59 6.02 143.59 7.55L143.59 7.55Q143.59 8.64 143.02 9.51Q142.45 10.39 141.43 10.93L141.43 10.93ZM138.22 5.80L138.16 9.98L140.03 10.03Q141.75 9.50 141.75 7.68L141.75 7.68Q141.75 6.73 141.23 6.26Q140.71 5.78 139.66 5.75L139.66 5.75L138.22 5.80ZM154.99 4.32Q157.33 4.32 158.59 5.64Q159.85 6.97 159.85 9.45L159.85 9.45Q159.85 12.33 158.47 13.86Q157.10 15.40 154.51 15.40L154.51 15.40Q153.78 15.40 152.76 15.38Q151.74 15.35 150.86 15.30L150.86 15.30L150.84 15.30L150.96 12.02L150.84 4.39L150.86 4.39L154.99 4.32ZM154.82 14.01Q156.38 14.01 157.21 12.97Q158.03 11.93 158.03 9.84L158.03 9.84Q158.03 7.74 157.24 6.74Q156.45 5.75 154.85 5.75L154.85 5.75Q153.92 5.75 152.63 5.81L152.63 5.81L152.54 11.87L152.59 13.89Q153.20 13.94 153.82 13.97Q154.43 14.01 154.82 14.01L154.82 14.01ZM166.68 13.89L169.32 13.80L169.42 13.96L169.30 15.30L162.86 15.30L162.98 12.02L162.86 4.39L169.33 4.39L169.44 4.54L169.30 5.88L166.72 5.81L164.64 5.83L164.59 9.01L166.56 9.04L168.36 8.99L168.48 9.13L168.35 10.47L166.43 10.42L164.57 10.46L164.56 11.87L164.61 13.87L166.68 13.89ZM175.43 4.27Q176.73 4.27 178.02 4.81L178.02 4.81L177.73 6.41L177.46 6.51Q176.91 6.12 176.33 5.90Q175.76 5.68 175.23 5.68L175.23 5.68Q174.40 5.68 173.90 6.14Q173.41 6.60 173.41 7.21L173.41 7.21Q173.41 7.80 173.90 8.19Q174.40 8.57 175.45 9.06L175.45 9.06Q176.37 9.50 176.94 9.86Q177.51 10.22 177.92 10.80Q178.32 11.39 178.32 12.21L178.32 12.21Q178.32 13.09 177.84 13.83Q177.35 14.57 176.48 15.00Q175.60 15.44 174.48 15.44L174.48 15.44Q173.73 15.44 172.93 15.25Q172.14 15.06 171.42 14.71L171.42 14.71L171.64 12.97L171.86 12.87Q172.49 13.46 173.25 13.76Q174.01 14.06 174.65 14.06L174.65 14.06Q175.54 14.06 176.06 13.59Q176.59 13.12 176.59 12.48L176.59 12.48Q176.59 11.83 176.08 11.43Q175.57 11.03 174.52 10.54L174.52 10.54Q173.61 10.12 173.05 9.77Q172.49 9.42 172.09 8.84Q171.69 8.26 171.69 7.45L171.69 7.45Q171.69 6.56 172.17 5.83Q172.65 5.10 173.50 4.68Q174.35 4.27 175.43 4.27L175.43 4.27ZM183.25 4.39L183.15 11.87L183.23 15.30L181.45 15.30L181.57 12.02L181.45 4.39L183.25 4.39ZM191.54 4.27Q193.26 4.27 194.74 5.00L194.74 5.00L194.38 6.63L194.20 6.65Q193.36 6.15 192.68 5.94Q192.00 5.73 191.25 5.73L191.25 5.73Q189.55 5.73 188.72 6.76Q187.89 7.79 187.89 10.00L187.89 10.00Q187.89 12.10 188.67 13.05Q189.45 13.99 191.15 13.99L191.15 13.99Q191.58 13.99 191.99 13.91Q192.41 13.84 193.04 13.65L193.04 13.65L193.09 12.55L193.04 10.86L194.69 10.74L194.66 12.27L194.71 14.77Q192.60 15.44 191.05 15.44L191.05 15.44Q188.55 15.44 187.31 14.05Q186.07 12.67 186.07 10.08L186.07 10.08Q186.07 7.26 187.49 5.76Q188.91 4.27 191.54 4.27L191.54 4.27ZM206.91 4.35L206.81 12.04L206.86 15.30L204.97 15.30L199.84 7.12L199.72 7.12L199.70 11.64L199.75 15.30L198.15 15.30L198.24 12.07L198.17 4.39L200.02 4.39L205.17 12.56L205.31 12.56L205.28 4.47L206.91 4.35Z" transform="translate(0, 0)"/>
    </g>
  </svg>
  <svg xmlns="http://www.w3.org/2000/svg" y="290" viewBox="3.009999990463257 8.75 247.91000366210938 23.06999969482422" x="268" height="23" width="247" style="overflow:visible">
    <g fill="#ffffff" fill-opacity="1" style="">
      <path d="M6.72 9.03L6.51 24.43L6.69 31.50L3.01 31.50L3.26 24.75L3.01 9.03L6.72 9.03ZM30.84 8.96L30.63 24.78L30.73 31.50L26.85 31.50L16.28 14.67L16.03 14.67L16.00 23.98L16.10 31.50L12.81 31.50L12.99 24.85L12.85 9.03L16.66 9.03L27.27 25.87L27.55 25.87L27.48 9.21L30.84 8.96ZM49.95 9.03L50.16 9.35L49.95 12.08L45.89 11.87L44.00 11.87L43.82 24.43L44.00 31.50L40.36 31.50L40.56 24.75L40.39 11.87L38.50 11.87L34.37 12.08L34.13 11.76L34.41 9.03L49.95 9.03ZM61.64 28.60L67.06 28.42L67.27 28.74L67.03 31.50L53.76 31.50L54.01 24.75L53.76 9.03L67.10 9.03L67.31 9.35L67.03 12.11L61.71 11.97L57.44 12.01L57.33 18.55L61.39 18.62L65.10 18.52L65.35 18.80L65.07 21.56L61.11 21.46L57.30 21.53L57.26 24.43L57.37 28.56L61.64 28.60ZM81.31 22.51Q83.69 26.32 86.94 30.66L86.94 30.66L86.91 31.08Q85.23 31.64 83.44 31.82L83.44 31.82L83.02 31.54Q80.12 26.78 78.33 23.49L78.33 23.49L74.52 23.49L74.52 24.43L74.69 31.50L71.02 31.50L71.26 24.75L71.02 9.03L78.65 9.00Q82.04 9.00 83.90 10.69Q85.75 12.39 85.75 15.54L85.75 15.54Q85.75 17.78 84.58 19.58Q83.41 21.39 81.31 22.51L81.31 22.51ZM74.69 11.94L74.59 20.55L78.44 20.65Q81.97 19.57 81.97 15.82L81.97 15.82Q81.97 13.86 80.90 12.88Q79.84 11.90 77.67 11.83L77.67 11.83L74.69 11.94ZM94.68 9.03L94.47 24.43L94.64 31.50L90.97 31.50L91.21 24.75L90.97 9.03L94.68 9.03ZM108.71 8.75Q113.37 8.75 115.89 11.62Q118.41 14.49 118.41 19.81L118.41 19.81Q118.41 25.55 115.71 28.68Q113.02 31.82 108.05 31.82L108.05 31.82Q103.43 31.82 100.92 28.86Q98.42 25.90 98.42 20.48L98.42 20.48Q98.42 14.84 101.10 11.80Q103.78 8.75 108.71 8.75L108.71 8.75ZM108.43 11.69Q105.25 11.69 103.69 13.74Q102.13 15.79 102.13 20.06L102.13 20.06Q102.13 24.71 103.65 26.86Q105.18 29.02 108.36 29.02L108.36 29.02Q111.58 29.02 113.12 26.95Q114.66 24.89 114.66 20.51L114.66 20.51Q114.66 15.93 113.14 13.81Q111.62 11.69 108.43 11.69L108.43 11.69ZM132.83 22.51Q135.21 26.32 138.46 30.66L138.46 30.66L138.43 31.08Q136.75 31.64 134.96 31.82L134.96 31.82L134.54 31.54Q131.64 26.78 129.85 23.49L129.85 23.49L126.04 23.49L126.04 24.43L126.21 31.50L122.54 31.50L122.78 24.75L122.54 9.03L130.17 9.00Q133.56 9.00 135.42 10.69Q137.27 12.39 137.27 15.54L137.27 15.54Q137.27 17.78 136.10 19.58Q134.93 21.39 132.83 22.51L132.83 22.51ZM126.21 11.94L126.11 20.55L129.96 20.65Q133.49 19.57 133.49 15.82L133.49 15.82Q133.49 13.86 132.42 12.88Q131.36 11.90 129.19 11.83L129.19 11.83L126.21 11.94ZM156.63 8.89Q161.46 8.89 164.05 11.62Q166.64 14.35 166.64 19.46L166.64 19.46Q166.64 25.38 163.80 28.54Q160.97 31.71 155.65 31.71L155.65 31.71Q154.14 31.71 152.04 31.66Q149.94 31.61 148.12 31.50L148.12 31.50L148.09 31.50L148.33 24.75L148.09 9.03L148.12 9.03L156.63 8.89ZM156.28 28.84Q159.50 28.84 161.19 26.71Q162.89 24.57 162.89 20.27L162.89 20.27Q162.89 15.93 161.26 13.88Q159.64 11.83 156.35 11.83L156.35 11.83Q154.42 11.83 151.76 11.97L151.76 11.97L151.59 24.43L151.69 28.60Q152.95 28.70 154.21 28.77Q155.47 28.84 156.28 28.84L156.28 28.84ZM178.64 28.60L184.07 28.42L184.28 28.74L184.03 31.50L170.77 31.50L171.01 24.75L170.77 9.03L184.10 9.03L184.31 9.35L184.03 12.11L178.71 11.97L174.44 12.01L174.34 18.55L178.40 18.62L182.11 18.52L182.35 18.80L182.07 21.56L178.12 21.46L174.30 21.53L174.27 24.43L174.37 28.56L178.64 28.60ZM195.30 11.97L191.70 12.01L191.59 19.08L195.13 19.15L198.84 19.04L199.08 19.36L198.80 22.09L194.81 21.98L191.56 22.02L191.52 24.43L191.70 31.50L188.02 31.50L188.27 24.75L188.02 9.03L200.59 9.03L200.83 9.35L200.55 12.18L195.30 11.97ZM207.24 9.03L207.03 24.43L207.20 31.50L203.53 31.50L203.77 24.75L203.53 9.03L207.24 9.03ZM231.35 8.96L231.14 24.78L231.25 31.50L227.36 31.50L216.79 14.67L216.55 14.67L216.51 23.98L216.62 31.50L213.33 31.50L213.50 24.85L213.36 9.03L217.18 9.03L227.78 25.87L228.06 25.87L227.99 9.21L231.35 8.96ZM245.25 28.60L250.67 28.42L250.88 28.74L250.64 31.50L237.37 31.50L237.62 24.75L237.37 9.03L250.71 9.03L250.92 9.35L250.64 12.11L245.32 11.97L241.05 12.01L240.94 18.55L245.00 18.62L248.71 18.52L248.96 18.80L248.68 21.56L244.72 21.46L240.91 21.53L240.87 24.43L240.98 28.56L245.25 28.60Z" transform="translate(0, 0)"/>
    </g>
  </svg>
</svg>
