<svg xmlns="http://www.w3.org/2000/svg" viewBox="0 0 835.64 696.93"><defs><style>.cls-1{fill:#fff;}</style></defs><title>gbk_logo_neg</title><g id="Layer_2" data-name="Layer 2"><g id="Layer_1-2" data-name="Layer 1"><path class="cls-1" d="M415.88,628.77c-.07.07-41.75,7.9-41.69,7.84,0-.4,0-80.25,0-80.46s-23.4-68.77-23.32-68.85c0,50.66-.08,102.53-.08,153.65-.22.22-44.15,8.23-44.15,8.08,0-89,0-179,0-267.8,0-.09,38.29-7.13,38.29-7.22,8.92,33.61,29.15,101.18,29.32,101.13,0,.17-.09-106.59,0-106.59-.09,0,41.5-7.6,41.58-7.69C415.85,449.52,415.88,540,415.88,628.77Z"/><path class="cls-1" d="M223.79,664.59l-44.07,8.17c-.05-.05,0-160.52,0-237.48,0-19.71,11.84-32.82,31.13-36.34q23.45-4.27,46.88-8.68c18.33-3.45,30.68,6.74,30.71,25.39.1,76.83.62,236.56.7,236.56-.08,0-44.63,8.31-44.46,8.31,0-44.8-.12-89.4-.12-134.92l-20.76,11.28Q223.81,600.28,223.79,664.59Zm.33-236.7V504L244,493.12V424.29Z"/><path class="cls-1" d="M504.78,61.65C531.31,57,557,51.93,583.56,47.22c14.77-2.62,29.8,8.09,29.72,23.39-.11,22.63,0,61.23-.06,68.52-.15,13.54-12,22.77-18.46,26.61,2.76.93,18.32,7.08,18.32,21.62,0,35.85.06,56,.06,89.88,0,19.69-14,32.74-29.93,35.71-25.28,4.7-78.43,14.61-78.43,14.6ZM548.23,192v93c-.11-.11,20.88-3.94,21-4V181.69C569,181.75,548,192.22,548.23,192Zm0-104.87v73.3c-.1,0,20.5-11.37,20.49-11.44s0-65.54,0-65.54S548.16,87.13,548.18,87.16Z"/><path class="cls-1" d="M377.86,351.09v-266c5.27-1,58.63-10.87,80.26-14.58,15-2.57,28.46,7.34,28.46,22.55,0,1.85-.21,139,.26,205.81.13,18.36-12.22,34.23-33.34,38.17C429.9,341.47,377.83,351.12,377.86,351.09Zm44.6-240.48V308.47s19.6-3.79,19.69-3.79V106.82C442.15,106.91,422.46,110.6,422.46,110.6Z"/><path class="cls-1" d="M658.64,583.7S614,592,614,591.94c0-44.71,0-89.34,0-134.38l-20.49,11.11c0,42,0,84.56,0,127.1,0,0-44.09,8.21-44.11,8.26s.17-225.44.2-237.17c0-19.25,11.72-33.07,30.72-36.41,16.05-2.82,32.57-6.21,48.59-9.2,16.6-3.09,29.25,8.17,29.29,25C658.35,411.53,658.64,581.62,658.64,583.7ZM593.73,436l19.92-10.87V355.62l-19.92,3.72Z"/><path class="cls-1" d="M251.9,241c0-33.55.45-67.12-.17-100.66-.38-20.23,14.7-34.35,32.09-37.52,16.38-3,32.1-6,48.13-8.86,16.39-3,29.13,7.41,29.26,24.3.18,23,.05,46.09.05,69.13,0,44.87-.38,89.75.18,134.62.23,18.49-12,34.35-32.18,38-16.35,3-32.67,6.4-49,9.22-13.19,2.28-24.15-4.06-27.44-16.34a39.35,39.35,0,0,1-.9-10Q251.85,292,251.9,241Zm44-107V332s20.3-3.79,20.37-3.79v-198C316.18,130.35,295.85,134,295.92,134Z"/><path class="cls-1" d="M234.92,244.68c0,33.83-.46,67.67.17,101.48.39,20.86-16.15,35.48-31.58,37.56-15.59,2.1-31,5.53-46.5,8.38-13.46,2.48-23.54-1.27-28.35-11.37a30.94,30.94,0,0,1-2.93-12.8c-.18-69.14-.18-137.2-.09-206.34,0-16.76,11.55-31.5,28-34.53,18.1-3.33,35.88-6.77,54.48-10.09,14-2.51,25.89,8.2,26.67,22.46C234.91,141.57,234.92,211.39,234.92,244.68Zm-45,106.85V153.65l-20,3.9V355.25C170,355.33,190,351.61,189.93,351.52Z"/><path class="cls-1" d="M169.53,674.62S129.68,682,129.72,682c-9.27-42.32-18.9-86.39-28.25-129.1-.38.38-6.07,5.7-9.21,8V688.93c-.26,0-43.22,8-43.18,8V429.13c-.1-.1,42.87-8.08,42.9-8.08V527.77c0,.27,10.5-8.07,10.57-8.14,6.7-32.43,23.1-104.81,23.19-104.89,15-2.72,29.56-5.63,45.74-8.57,0,.1-.08,7.19.05,7.31-.06.06-8,16.45-8,16.45s-18.9,76.94-23.26,96c-2.55,11.16-14.4,15.11-14.4,15.11a28.74,28.74,0,0,1,19.35,21.72C145.3,563.26,169.52,674.58,169.53,674.62Z"/><path class="cls-1" d="M109.34,400.72c-13.77,2.7-27,4.74-41.31,7.54,1.91-4.21,3.42-8.52,4.93-11.84-.2-.13-12.07,14.38-40.53,17.94C9.54,417.23.17,407.8.14,391.39,0,321.69,0,253.06,0,183.36c0-14.61,12.56-29.9,27.62-32.91q27.53-5.51,55.3-9.85a22.45,22.45,0,0,1,26.29,21.58c.48,15.2.11,29.38.11,45-.13.19-41.14,22.23-41.28,22.09v-53C59.14,178,51,179.5,42.55,181.05V378.89s25.05-4.64,25.13-4.64V275.13l-11.28-7.84V263.6l52.95-29Z"/><path class="cls-1" d="M432.29,526.32l40.68-23v82.07l18.56-3.61c.09-1.39.22-58.72.18-86.22,0-6.61-1.83-8.21-8.32-7.29-5.47.78-10.91,1.78-16.39,2.5-17.65,2.33-30.95-7.16-32.78-24.82-1.41-13.63-.42-65-.66-76.06-.44-19.94,9.68-34.1,29.34-37.93,13.22-2.57,26.45-5.15,39.75-7.26,23.5-3.84,30.63,14.68,30.85,25.25.37,17.24.1,32.07.1,49.89l-37.18,20.67V377.41c-7,1.33-14.34,2.52-20.72,3.73-.14,1.24-.22,44.38-.1,65.54,0,6.22,3.05,8,9.2,7.26q6-.73,12-1.82c23.11-4.24,36.32,6.21,36.92,29.73.35,13.89,0,77.59-.06,94.44,0,18.52-12.25,33-30.43,36.33-14.32,2.59-28.55,5.68-42.92,7.87-16.56,2.52-27.92-7.48-28-24.13C432.21,573.45,432.29,549.12,432.29,526.32Z"/><path class="cls-1" d="M776.55,375.33l-37,20.46V331.94c-7.07,1.35-14.35,2.55-21,3.81,0,6.82.21,50.14.31,65.37,0,7.53,2.89,9,10.33,7.86,5.85-.92,11.72-1.79,17.61-2.47,14.77-1.71,25.83,6,28.61,20.53,1.21,6.3,1.19,13.11,1.2,19.54.07,27-.17,54.74-.32,81.78-.28,20.1-12.18,36.3-31.52,39.25-14.11,2.16-28.09,5.16-42.15,7.64-13.72,2.42-26.88-7.43-26.88-21.2,0-24.09.52-72.28.7-73.26L716,458.42v81.79l19.11-3.78c0-8.79-.16-65.34-.24-85.29,0-7.28-1.47-8.51-8.67-7.62s-14.71,2.49-22.06,2.43c-15.44-.13-27.07-10.36-27.07-26.46,0-18.77.16-70.73.14-75.18-.07-17.13,10.87-34.17,27.74-37.15,13.53-2.39,27-4.94,40.53-7.52,19.47-3.76,31,12,31,26C776.61,343.63,776.55,356.83,776.55,375.33Z"/><path class="cls-1" d="M738.3,283.89V18.37C738,18.5,835.35.22,835.64,0c-.54.54-10,37.74-10,36.35C811,39,796.5,42,781.84,44.68V113.8c0,.11,31.87-6,32-6.07V142l-32,6v93.61l43.87-7.91v33.89C796.76,272.78,767.84,278.53,738.3,283.89Z"/><path class="cls-1" d="M616.69,40.64c-.16,0,43.48-7.95,43.32-8.11,4.48,37.17,9,66.23,13.39,102.83a.86.86,0,0,0,.2-.09s7.65-68.62,10.91-107.13C684.35,28.31,728,20,727.83,20c-.76,4.43-32,176.73-32.06,179-.3,6.74-1,91.16-1.11,93l-40.88,7.47c0-1.91.55-61.18-.08-92.3C653.5,197.56,618.38,47.82,616.69,40.64Z"/></g></g></svg>